<?xml version="1.0" encoding="UTF-8" standalone="no"?><!DOCTYPE svg PUBLIC "-//W3C//DTD SVG 1.1//EN" "http://www.w3.org/Graphics/SVG/1.1/DTD/svg11.dtd"><svg width="100%" height="100%" viewBox="0 0 60 43" version="1.1" xmlns="http://www.w3.org/2000/svg" xmlns:xlink="http://www.w3.org/1999/xlink" xml:space="preserve" xmlns:serif="http://www.serif.com/" style="fill-rule:evenodd;clip-rule:evenodd;stroke-linejoin:round;stroke-miterlimit:1.41421;"><g><path d="M-1,-1l62,0l0,45l-62,0l0,-45Zm1.613,24.397l-0.085,0.89c-0.285,2.972 0.134,5.947 1.398,8.66l0.544,1.078l0.062,0.1c3.737,6.17 10.3,8.768 17.452,8.768c13.846,0 25.265,-6.01 30.51,-18.708c3.505,0.178 7.09,-0.83 8.805,-4.083l0.437,-0.83l-0.832,-0.466l0.001,0c-2.03,-1.138 -4.73,-1.294 -7.03,-0.636c-0.283,-2.377 -1.89,-4.46 -3.8,-5.953l-0.758,-0.593l-0.638,0.716c-1.28,1.438 -1.66,3.83 -1.487,5.666c0.13,1.35 0.565,2.722 1.42,3.806c-0.65,0.38 -1.388,0.682 -2.045,0.9c-1.34,0.44 -2.795,0.685 -4.21,0.685l-39.744,0Zm11.582,11.465c-1.764,0 -3.198,-1.394 -3.198,-3.106c0,-1.713 1.434,-3.107 3.197,-3.107c1.763,0 3.197,1.393 3.197,3.106c0,1.712 -1.433,3.106 -3.196,3.106l0,0.001Zm-0.001,-4.742c-0.93,0 -1.684,0.733 -1.684,1.636c0,0.902 0.755,1.635 1.684,1.635c0.928,0 1.683,-0.732 1.683,-1.634c0,-0.903 -0.755,-1.637 -1.683,-1.637Zm-2.397,-8.479l0,-5.873l-6.04,0l0,5.873l6.04,0Zm7.413,0l0,-5.873l-6.04,0l0,5.873l6.04,0Zm7.413,0l0,-5.873l-6.043,0l0,5.873l6.043,0Zm7.412,0l0,-5.873l-6.042,0l0,5.873l6.042,0Zm7.412,0l0,-5.873l-6.042,0l0,5.873l6.042,0Zm-22.237,-7.531l0,-5.87l-6.04,0l0,5.87l6.04,0Zm7.413,0l0,-5.87l-6.043,0l0,5.87l6.043,0Zm7.412,0l0,-5.87l-6.042,0l0,5.87l6.042,0Zm0,-7.53l0,-5.872l-6.042,0l0,5.872l6.042,0Z" style="fill:#313337;"/></g></svg>