<?xml version="1.0" encoding="UTF-8" standalone="no"?><!DOCTYPE svg PUBLIC "-//W3C//DTD SVG 1.1//EN" "http://www.w3.org/Graphics/SVG/1.1/DTD/svg11.dtd"><svg width="100%" height="100%" viewBox="0 0 460 450" version="1.1" xmlns="http://www.w3.org/2000/svg" xmlns:xlink="http://www.w3.org/1999/xlink" xml:space="preserve" xmlns:serif="http://www.serif.com/" style="fill-rule:evenodd;clip-rule:evenodd;stroke-linejoin:round;stroke-miterlimit:1.41421;"><g id="github_black"><path d="M499,-42l0,533l-548,0l0,-533l548,0Zm-40.367,272.565c0,-126.272 -102.363,-228.633 -228.633,-228.633c-126.271,0 -228.634,102.362 -228.634,228.633c0,100.224 64.493,185.375 154.237,216.244c5.471,-3.947 11.772,-8.817 11.772,-17.023c0,-12.575 -0.272,-44.923 -0.272,-44.923c0,0 -9.925,1.689 -24.087,1.689c-35.687,0 -46.971,-22.646 -52.342,-35.322c-6.99,-16.507 -16.054,-24.259 -25.684,-30.456c-5.914,-3.809 -7.273,-8.293 -0.43,-9.577c31.586,-5.915 39.664,35.628 60.76,42.253c15.057,4.72 34.418,2.68 44.049,-3.516c1.269,-12.687 10.468,-23.662 18.127,-29.441c-53.656,-5.127 -85.47,-23.662 -101.966,-53.452l-1.767,-3.336l-4.146,-9.464l-1.224,-3.392c-5.166,-15.121 -7.455,-32.439 -7.455,-51.785c0,-34.343 10.763,-47.3 25.208,-65.609c-11.046,-39.155 3.966,-65.914 3.966,-65.914c0,0 23.225,-4.789 67.127,26.478c23.791,-10.141 87.237,-10.986 117.26,-2.254c18.41,-12.112 52.115,-29.295 65.711,-24.484c3.682,5.893 11.613,23.076 4.815,60.822c4.611,8.281 28.607,25.915 28.698,75.773c-0.385,18.387 -2.312,33.915 -5.881,47.041l-1.982,6.715c0,0 -1.133,3.166 -2.368,6.186l-1.45,3.335c-15.918,34.77 -48.57,47.751 -101.331,53.148c17.096,10.704 22.002,24.134 22.002,60.472c0,36.337 -0.488,41.216 -0.374,49.576c0.098,7.387 6.007,12.698 11.321,16.72c90.13,-30.655 154.973,-116.006 154.973,-216.504Z" style="fill:#313337;"/></g></svg>