<?xml version="1.0" encoding="UTF-8" standalone="no"?><!DOCTYPE svg PUBLIC "-//W3C//DTD SVG 1.1//EN" "http://www.w3.org/Graphics/SVG/1.1/DTD/svg11.dtd"><svg width="100%" height="100%" viewBox="0 0 1140 930" version="1.1" xmlns="http://www.w3.org/2000/svg" xmlns:xlink="http://www.w3.org/1999/xlink" xml:space="preserve" xmlns:serif="http://www.serif.com/" style="fill-rule:evenodd;clip-rule:evenodd;stroke-linejoin:round;stroke-miterlimit:1.41421;"><g><path d="M1175,-38l0,1009l-1224.83,0l0,-1009l1224.83,0Zm-36.708,151.429c-41.913,18.588 -86.955,31.154 -134.229,36.8c48.254,-28.921 85.304,-74.721 102.758,-129.296c-45.154,26.784 -95.171,46.234 -148.404,56.713c-42.634,-45.421 -103.371,-73.804 -170.588,-73.804c-129.071,0 -233.712,104.641 -233.712,233.7c0,18.321 2.07,36.154 6.054,53.262c-194.233,-9.746 -366.438,-102.787 -481.704,-244.183c-20.117,34.517 -31.642,74.662 -31.642,117.492c0,81.079 41.258,152.612 103.967,194.525c-38.309,-1.213 -74.346,-11.73 -105.855,-29.234c-0.016,0.979 -0.02,1.954 -0.02,2.938c0,113.233 80.558,207.696 187.47,229.158c-19.612,5.342 -40.258,8.196 -61.57,8.196c-15.059,0 -29.7,-1.463 -43.971,-4.192c29.741,92.85 116.05,160.417 218.317,162.304c-79.988,62.68 -180.755,100.042 -290.251,100.042c-18.862,0 -37.466,-1.104 -55.745,-3.262c103.425,66.308 226.266,104.995 358.245,104.995c429.871,0 664.938,-356.112 664.938,-664.941c0,-10.129 -0.225,-20.209 -0.675,-30.234c45.654,-32.95 85.283,-74.112 116.617,-120.979Z" style="fill:#303236;"/></g></svg>